<svg width="24" height="24" viewBox="0 0 24 24" fill="none" xmlns="http://www.w3.org/2000/svg">
    <path
        d="M17.0002 8.2498C17.3317 8.2498 17.6497 8.11811 17.8841 7.88369C18.1185 7.64927 18.2502 7.33133 18.2502 6.9998C18.2502 6.66828 18.1185 6.35034 17.8841 6.11592C17.6497 5.8815 17.3317 5.7498 17.0002 5.7498C16.6687 5.7498 16.3507 5.8815 16.1163 6.11592C15.8819 6.35034 15.7502 6.66828 15.7502 6.9998C15.7502 7.33133 15.8819 7.64927 16.1163 7.88369C16.3507 8.11811 16.6687 8.2498 17.0002 8.2498ZM8.9502 8.5998C8.95125 6.86296 9.64168 5.19756 10.8698 3.96943C12.0979 2.74129 13.7634 2.05086 15.5002 2.0498C19.0962 2.0498 22.0502 4.8688 22.0502 8.4998C22.0529 9.88471 21.6132 11.2343 20.7952 12.3518C20.405 12.0333 19.9763 11.7652 19.5192 11.5538C20.1882 10.6763 20.5501 9.60322 20.5492 8.4998C20.5492 5.7308 18.3022 3.5498 15.4992 3.5498C14.1602 3.55086 12.8763 4.08326 11.9295 5.03009C10.9826 5.97691 10.4503 7.26079 10.4492 8.5998C10.4492 8.8618 10.4832 9.1388 10.5372 9.4448C10.5882 9.72537 10.5706 10.0141 10.486 10.2864C10.4014 10.5587 10.2522 10.8065 10.0512 11.0088L3.8152 17.2438C3.69913 17.3599 3.60707 17.4977 3.54427 17.6494C3.48147 17.8011 3.44916 17.9636 3.4492 18.1278V20.2998C3.4492 20.4378 3.5612 20.5498 3.6992 20.5498H6.19919C6.2655 20.5498 6.32909 20.5235 6.37597 20.4766C6.42286 20.4297 6.44919 20.3661 6.44919 20.2998V18.7998C6.44919 18.1098 7.00919 17.5498 7.69919 17.5498H9.4492V15.7998C9.4492 15.1498 9.9462 14.6148 10.5812 14.5548L11.6582 15.6328C11.5111 15.7511 11.3835 15.8918 11.2802 16.0498H10.9502V17.7998C10.9502 18.4898 10.3902 19.0498 9.7002 19.0498H7.9502V20.2998C7.9502 20.7639 7.76582 21.2091 7.43763 21.5372C7.10944 21.8654 6.66432 22.0498 6.2002 22.0498H3.7002C3.23607 22.0498 2.79095 21.8654 2.46276 21.5372C2.13457 21.2091 1.9502 20.7639 1.9502 20.2998V18.1278C1.9502 17.3978 2.2392 16.6988 2.7552 16.1838L8.9902 9.9478C9.02026 9.91552 9.04227 9.87659 9.05443 9.83419C9.0666 9.79179 9.06857 9.74711 9.0602 9.7038C8.99164 9.33968 8.95484 8.9703 8.9502 8.5998ZM13.7802 11.2798C13.8539 11.2111 13.913 11.1283 13.954 11.0363C13.995 10.9443 14.017 10.845 14.0188 10.7443C14.0206 10.6436 14.002 10.5436 13.9643 10.4502C13.9266 10.3568 13.8705 10.272 13.7992 10.2008C13.728 10.1295 13.6432 10.0734 13.5498 10.0357C13.4564 9.99796 13.3564 9.97944 13.2557 9.98121C13.155 9.98299 13.0557 10.005 12.9637 10.046C12.8717 10.087 12.7889 10.1461 12.7202 10.2198L10.7202 12.2198C10.5797 12.3604 10.5009 12.5511 10.5009 12.7498C10.5009 12.9486 10.5797 13.1392 10.7202 13.2798L12.7202 15.2798C12.7889 15.3535 12.8717 15.4126 12.9637 15.4536C13.0557 15.4946 13.155 15.5166 13.2557 15.5184C13.3564 15.5202 13.4564 15.5016 13.5498 15.4639C13.6432 15.4262 13.728 15.3701 13.7992 15.2988C13.8705 15.2276 13.9266 15.1428 13.9643 15.0494C14.002 14.956 14.0206 14.856 14.0188 14.7553C14.017 14.6546 13.995 14.5553 13.954 14.4633C13.913 14.3713 13.8539 14.2885 13.7802 14.2198L13.0602 13.4998H17.0002C17.6924 13.4998 18.3691 13.7051 18.9447 14.0897C19.5203 14.4742 19.9689 15.0209 20.2338 15.6604C20.4987 16.3 20.568 17.0037 20.4329 17.6826C20.2979 18.3616 19.9646 18.9852 19.4751 19.4747C18.9856 19.9642 18.3619 20.2975 17.683 20.4326C17.0041 20.5676 16.3003 20.4983 15.6608 20.2334C15.0213 19.9685 14.4746 19.5199 14.0901 18.9443C13.7055 18.3687 13.5002 17.692 13.5002 16.9998C13.5002 16.8009 13.4212 16.6101 13.2805 16.4695C13.1399 16.3288 12.9491 16.2498 12.7502 16.2498C12.5513 16.2498 12.3605 16.3288 12.2199 16.4695C12.0792 16.6101 12.0002 16.8009 12.0002 16.9998C12.0002 17.9887 12.2934 18.9554 12.8428 19.7777C13.3923 20.5999 14.1731 21.2408 15.0868 21.6192C16.0004 21.9976 17.0057 22.0967 17.9756 21.9037C18.9456 21.7108 19.8365 21.2346 20.5357 20.5353C21.235 19.8361 21.7112 18.9452 21.9041 17.9753C22.097 17.0054 21.998 16 21.6196 15.0864C21.2412 14.1728 20.6003 13.3919 19.778 12.8425C18.9558 12.293 17.9891 11.9998 17.0002 11.9998H13.0602L13.7802 11.2798Z"
        fill="black" />
</svg>